<mxfile host="Electron" modified="2024-05-19T04:30:55.422Z" agent="Mozilla/5.0 (Windows NT 10.0; Win64; x64) AppleWebKit/537.36 (KHTML, like Gecko) draw.io/24.2.5 Chrome/120.0.6099.109 Electron/28.1.0 Safari/537.36" etag="9p7DD6B7UHqlL9kEZKcF" version="24.2.5" type="device">
  <diagram name="Page-1" id="_oMLdafumvRQSFAWHbNV">
    <mxGraphModel dx="1195" dy="697" grid="1" gridSize="10" guides="1" tooltips="1" connect="1" arrows="1" fold="1" page="1" pageScale="1" pageWidth="850" pageHeight="1100" math="0" shadow="0">
      <root>
        <mxCell id="0" />
        <mxCell id="1" parent="0" />
        <mxCell id="0TBy1uSMwZ3hOXcMFZeA-1" value="&lt;font style=&quot;font-size: 20px;&quot;&gt;Player&lt;/font&gt;&lt;div style=&quot;font-size: 20px;&quot;&gt;&lt;br&gt;&lt;/div&gt;" style="shape=umlActor;verticalLabelPosition=bottom;verticalAlign=top;html=1;outlineConnect=0;" vertex="1" parent="1">
          <mxGeometry x="370" y="320" width="60" height="120" as="geometry" />
        </mxCell>
        <mxCell id="0TBy1uSMwZ3hOXcMFZeA-10" value="" style="rounded=0;whiteSpace=wrap;html=1;" vertex="1" parent="1">
          <mxGeometry x="560" y="30" width="610" height="640" as="geometry" />
        </mxCell>
        <mxCell id="0TBy1uSMwZ3hOXcMFZeA-11" value="&lt;font style=&quot;font-size: 14px;&quot;&gt;FastDelivery&lt;/font&gt;" style="text;html=1;align=center;verticalAlign=middle;whiteSpace=wrap;rounded=0;" vertex="1" parent="1">
          <mxGeometry x="835" y="30" width="60" height="30" as="geometry" />
        </mxCell>
        <mxCell id="0TBy1uSMwZ3hOXcMFZeA-12" value="&lt;span style=&quot;font-size: 20px;&quot;&gt;PlayGame&lt;/span&gt;" style="ellipse;whiteSpace=wrap;html=1;" vertex="1" parent="1">
          <mxGeometry x="780" y="100" width="140" height="70" as="geometry" />
        </mxCell>
        <mxCell id="0TBy1uSMwZ3hOXcMFZeA-13" value="&lt;span style=&quot;font-size: 20px;&quot;&gt;Control character&lt;/span&gt;" style="ellipse;whiteSpace=wrap;html=1;" vertex="1" parent="1">
          <mxGeometry x="830" y="240" width="140" height="70" as="geometry" />
        </mxCell>
        <mxCell id="0TBy1uSMwZ3hOXcMFZeA-14" value="&lt;span style=&quot;font-size: 20px;&quot;&gt;PauseGame&lt;/span&gt;" style="ellipse;whiteSpace=wrap;html=1;" vertex="1" parent="1">
          <mxGeometry x="830" y="380" width="140" height="70" as="geometry" />
        </mxCell>
        <mxCell id="0TBy1uSMwZ3hOXcMFZeA-15" value="&lt;span style=&quot;font-size: 20px;&quot;&gt;Quit&lt;/span&gt;" style="ellipse;whiteSpace=wrap;html=1;" vertex="1" parent="1">
          <mxGeometry x="780" y="530" width="140" height="70" as="geometry" />
        </mxCell>
        <mxCell id="0TBy1uSMwZ3hOXcMFZeA-16" value="" style="endArrow=none;html=1;rounded=0;" edge="1" parent="1" source="0TBy1uSMwZ3hOXcMFZeA-1" target="0TBy1uSMwZ3hOXcMFZeA-12">
          <mxGeometry relative="1" as="geometry">
            <mxPoint x="340" y="400" as="sourcePoint" />
            <mxPoint x="500" y="400" as="targetPoint" />
          </mxGeometry>
        </mxCell>
        <mxCell id="0TBy1uSMwZ3hOXcMFZeA-17" value="" style="endArrow=none;html=1;rounded=0;" edge="1" parent="1" source="0TBy1uSMwZ3hOXcMFZeA-1" target="0TBy1uSMwZ3hOXcMFZeA-13">
          <mxGeometry relative="1" as="geometry">
            <mxPoint x="340" y="400" as="sourcePoint" />
            <mxPoint x="500" y="400" as="targetPoint" />
          </mxGeometry>
        </mxCell>
        <mxCell id="0TBy1uSMwZ3hOXcMFZeA-18" value="" style="endArrow=none;html=1;rounded=0;" edge="1" parent="1" source="0TBy1uSMwZ3hOXcMFZeA-1" target="0TBy1uSMwZ3hOXcMFZeA-14">
          <mxGeometry relative="1" as="geometry">
            <mxPoint x="340" y="400" as="sourcePoint" />
            <mxPoint x="500" y="400" as="targetPoint" />
          </mxGeometry>
        </mxCell>
        <mxCell id="0TBy1uSMwZ3hOXcMFZeA-19" value="" style="endArrow=none;html=1;rounded=0;" edge="1" parent="1" source="0TBy1uSMwZ3hOXcMFZeA-1" target="0TBy1uSMwZ3hOXcMFZeA-15">
          <mxGeometry relative="1" as="geometry">
            <mxPoint x="340" y="400" as="sourcePoint" />
            <mxPoint x="500" y="400" as="targetPoint" />
          </mxGeometry>
        </mxCell>
      </root>
    </mxGraphModel>
  </diagram>
</mxfile>
